<?xml version="1.0" encoding="utf-8"?>
<!-- Generator: Adobe Illustrator 18.1.0, SVG Export Plug-In . SVG Version: 6.00 Build 0)  -->
<svg version="1.1" id="Layer_1" xmlns="http://www.w3.org/2000/svg" xmlns:xlink="http://www.w3.org/1999/xlink" x="0px" y="0px"
	 viewBox="0 0 11.1 12.3" enable-background="new 0 0 11.1 12.3" xml:space="preserve">
<g>
	<path d="M10.5,6.4l-4.4,4.4C6,11,5.8,11.1,5.6,11.1S5.1,11,5,10.8L0.6,6.4C0.4,6.3,0.4,6.1,0.4,5.8s0.1-0.4,0.3-0.6l0.5-0.5
		c0.2-0.2,0.4-0.2,0.6-0.2s0.4,0.1,0.6,0.2l2,2V2c0-0.5,0.4-0.9,0.9-0.9H6c0.5,0,0.9,0.4,0.9,0.9v4.7l2-2C9,4.6,9.2,4.5,9.4,4.5
		S9.9,4.6,10,4.7l0.5,0.5c0.2,0.2,0.2,0.4,0.2,0.6S10.7,6.3,10.5,6.4z"/>
</g>
</svg>
